<?xml version="1.0" standalone="no"?><svg xmlns="http://www.w3.org/2000/svg" viewBox="0 0 1440 320"><path fill=" #c8f5d9ab" fill-opacity="0.2" d="M0,288L26.7,272C53.3,256,107,224,160,229.3C213.3,235,267,277,320,277.3C373.3,277,427,235,480,181.3C533.3,128,587,64,640,42.7C693.3,21,747,43,800,69.3C853.3,96,907,128,960,122.7C1013.3,117,1067,75,1120,58.7C1173.3,43,1227,53,1280,64C1333.3,75,1387,85,1413,90.7L1440,96L1440,0L1413.3,0C1386.7,0,1333,0,1280,0C1226.7,0,1173,0,1120,0C1066.7,0,1013,0,960,0C906.7,0,853,0,800,0C746.7,0,693,0,640,0C586.7,0,533,0,480,0C426.7,0,373,0,320,0C266.7,0,213,0,160,0C106.7,0,53,0,27,0L0,0Z"></path></svg>